<?xml version="1.0" encoding="UTF-8"?>
<svg xmlns="http://www.w3.org/2000/svg" xmlns:xlink="http://www.w3.org/1999/xlink" width="60pt" height="60pt" viewBox="0 0 60 60" version="1.1">
<g id="surface1">
<path style=" stroke:none;fill-rule:nonzero;fill:rgb(17.254902%,24.313725%,31.372549%);fill-opacity:1;" d="M 7.5 5 C 4.738281 5 2.5 7.25 2.5 10 L 2.5 50 C 2.5 52.75 4.738281 55 7.5 55 L 52.5 55 C 55.261719 55 57.5 52.75 57.5 50 L 57.5 10 C 57.5 7.25 55.261719 5 52.5 5 Z M 7.5 5 "/>
<path style=" stroke:none;fill-rule:nonzero;fill:rgb(20.392157%,28.627451%,36.862745%);fill-opacity:1;" d="M 7.5 52.5 C 4.738281 52.5 2.5 50.25 2.5 47.5 L 2.5 17.5 L 57.5 17.5 L 57.5 47.5 C 57.5 50.25 55.261719 52.5 52.5 52.5 Z M 7.5 52.5 "/>
<path style=" stroke:none;fill-rule:nonzero;fill:rgb(92.54902%,94.117647%,94.509804%);fill-opacity:1;" d="M 10 11.25 L 10 14 L 15 20 L 10 25.75 L 10 28.5 L 17.5 20 Z M 10 11.25 "/>
<path style=" stroke:none;fill-rule:nonzero;fill:rgb(20.392157%,28.627451%,36.862745%);fill-opacity:1;" d="M 7.5 5 C 4.738281 5 2.5 7.238281 2.5 10 L 2.5 40 L 57.5 40 L 57.5 10 C 57.5 7.238281 55.261719 5 52.5 5 Z M 7.5 5 "/>
<path style=" stroke:none;fill-rule:nonzero;fill:rgb(92.54902%,94.117647%,94.509804%);fill-opacity:1;" d="M 10 12.8125 L 10 15.625 L 17.5 20 L 10 24.375 L 10 27.1875 L 22.5 20 Z M 22.5 25 L 22.5 27.5 L 35 27.5 L 35 25 Z M 22.5 25 "/>
</g>
</svg>
